<svg xmlns="http://www.w3.org/2000/svg" style="display:none">
<symbol id="icon---" viewBox="0 0 32 32">

<path d="M0 32H32V1.90735e-06H0V32Z" fill="white"/>

</symbol>
<symbol id="icon-calendar" viewBox="0 0 20 20">

<path d="M15.8333 3.33333H4.16667C3.24619 3.33333 2.5 4.07952 2.5 4.99999V16.6667C2.5 17.5871 3.24619 18.3333 4.16667 18.3333H15.8333C16.7538 18.3333 17.5 17.5871 17.5 16.6667V4.99999C17.5 4.07952 16.7538 3.33333 15.8333 3.33333Z" stroke="#262626" stroke-width="1.8" stroke-linecap="round" stroke-linejoin="round"/>
<path d="M13.333 1.66667V5" stroke="#262626" stroke-width="1.8" stroke-linecap="round" stroke-linejoin="round"/>
<path d="M6.66699 1.66667V5" stroke="#262626" stroke-width="1.8" stroke-linecap="round" stroke-linejoin="round"/>
<path d="M2.5 8.33333H17.5" stroke="#262626" stroke-width="1.8" stroke-linecap="round" stroke-linejoin="round"/>

</symbol>

<symbol id="icon-paw" viewBox="0 0 32 32">
<path fill="#f6b83d" style="fill: var(--color1, #f6b83d)" d="M12.5 5c-1.070 0-2.002 0.608-2.594 1.438s-0.906 1.902-0.906 3.062c0 1.16 0.314 2.233 0.906 3.063s1.524 1.437 2.594 1.437c1.070 0 2.002-0.608 2.594-1.438s0.906-1.902 0.906-3.062c0-1.16-0.314-2.233-0.906-3.063s-1.524-1.437-2.594-1.437zM16 9.5c0 1.16 0.314 2.233 0.906 3.063s1.525 1.437 2.594 1.437c1.070 0 2.002-0.608 2.594-1.438s0.906-1.902 0.906-3.062c0-1.16-0.314-2.233-0.906-3.063s-1.524-1.437-2.594-1.437c-1.070 0-2.002 0.608-2.594 1.438s-0.906 1.902-0.906 3.062zM12.5 7c0.312 0 0.656 0.156 0.97 0.594 0.31 0.437 0.53 1.133 0.53 1.906s-0.22 1.47-0.53 1.906c-0.314 0.438-0.658 0.594-0.97 0.594s-0.656-0.156-0.97-0.594c-0.31-0.437-0.53-1.133-0.53-1.906s0.22-1.47 0.53-1.906c0.314-0.438 0.658-0.594 0.97-0.594zM19.5 7c0.312 0 0.656 0.156 0.97 0.594 0.31 0.437 0.53 1.133 0.53 1.906s-0.22 1.47-0.53 1.906c-0.314 0.438-0.658 0.594-0.97 0.594s-0.656-0.156-0.97-0.594c-0.31-0.437-0.53-1.133-0.53-1.906s0.22-1.47 0.53-1.906c0.314-0.438 0.658-0.594 0.97-0.594zM7.5 12c-1.070 0-2.002 0.608-2.594 1.438s-0.906 1.902-0.906 3.062c0 1.16 0.314 2.233 0.906 3.063s1.524 1.437 2.594 1.437c1.070 0 2.002-0.608 2.594-1.438s0.906-1.902 0.906-3.062c0-1.16-0.314-2.233-0.906-3.063s-1.524-1.437-2.594-1.437zM24.5 12c-1.070 0-2.002 0.608-2.594 1.438s-0.906 1.902-0.906 3.062c0 1.16 0.314 2.233 0.906 3.063s1.524 1.437 2.594 1.437c1.070 0 2.002-0.608 2.594-1.438s0.906-1.902 0.906-3.062c0-1.16-0.314-2.233-0.906-3.063s-1.524-1.437-2.594-1.437zM7.5 14c0.312 0 0.656 0.156 0.97 0.594 0.31 0.437 0.53 1.133 0.53 1.906s-0.22 1.47-0.53 1.906c-0.314 0.438-0.658 0.594-0.97 0.594s-0.656-0.156-0.97-0.594c-0.31-0.436-0.53-1.133-0.53-1.906s0.22-1.47 0.53-1.906c0.314-0.438 0.658-0.594 0.97-0.594zM24.5 14c0.312 0 0.656 0.156 0.97 0.594 0.31 0.437 0.53 1.133 0.53 1.906s-0.22 1.47-0.53 1.906c-0.314 0.438-0.658 0.594-0.97 0.594s-0.656-0.156-0.97-0.594c-0.31-0.437-0.53-1.133-0.53-1.906s0.22-1.47 0.53-1.906c0.314-0.438 0.658-0.594 0.97-0.594zM16 16c-1.333 0-2.263 0.865-2.72 1.625-0.454 0.76-0.734 1.392-1 1.656-0.153 0.157-1.118 0.52-2.124 1.033-0.503 0.257-1.010 0.6-1.437 1.125-0.43 0.525-0.72 1.25-0.72 2.063 0 1.92 1.58 3.5 3.5 3.5 0.866 0 1.77-0.28 2.655-0.53 0.889-0.256 1.846-0.472 1.846-0.472s0.957 0.216 1.844 0.47c0.886 0.25 1.79 0.53 2.656 0.53 1.92 0 3.5-1.58 3.5-3.5 0-0.794-0.293-1.52-0.72-2.030-0.425-0.513-0.937-0.83-1.436-1.095-1-0.53-1.983-0.95-2.125-1.094-0.24-0.237-0.51-0.89-0.97-1.654-0.459-0.767-1.409-1.627-2.749-1.627zM16 18c0.66 0 0.733 0.16 1.030 0.656 0.3 0.495 0.524 1.336 1.25 2.063 0.825 0.82 1.867 1 2.626 1.404 0.38 0.202 0.67 0.417 0.844 0.625 0.173 0.207 0.25 0.396 0.25 0.75 0 0.84-0.66 1.5-1.5 1.5-0.29 0-1.224-0.22-2.094-0.47-0.87-0.247-1.59-0.53-2.406-0.53s-1.536 0.283-2.406 0.53c-0.87 0.25-1.804 0.47-2.094 0.47-0.84 0-1.5-0.66-1.5-1.5 0-0.403 0.084-0.61 0.25-0.814 0.166-0.203 0.472-0.404 0.844-0.593 0.744-0.38 1.78-0.53 2.625-1.375 0.733-0.737 0.953-1.605 1.25-2.095 0.292-0.49 0.362-0.625 1.030-0.625l0.001 0.004z"></path>
</symbol>

<symbol id="icon-check" viewBox="0 0 22 22">

<path d="M18.3337 6.41667L8.25042 16.5L3.66699 11.9167" stroke="#08AA83" stroke-width="1.5" stroke-linecap="round" stroke-linejoin="round"/>

</symbol>
<symbol id="icon-chevron-down" viewBox="0 0 18 18">

<path d="M4.5 6.75L9 11.25L13.5 6.75" stroke="#262626" stroke-width="2" stroke-linecap="round" stroke-linejoin="round"/>

</symbol>
<symbol id="icon-cross-small" viewBox="0 0 22 22">

<path d="M17.4163 4.58333L4.58301 17.4167M4.58305 4.58333L17.4163 17.4167"  stroke-width="2" stroke-linecap="round" stroke-linejoin="round"/>

</symbol>
<symbol id="icon-eye-off" viewBox="0 0 22 22">

<g clip-path="url(#clip0_55848_2014)">
<path d="M16.4463 16.445C14.8793 17.6394 12.9713 18.3011 11.0013 18.3333C4.58464 18.3333 0.917969 11 0.917969 11C2.0582 8.87507 3.63968 7.01855 5.5563 5.555M9.0763 3.88666C9.70727 3.73897 10.3533 3.66514 11.0013 3.66666C17.418 3.66666 21.0846 11 21.0846 11C20.5282 12.041 19.8646 13.021 19.1046 13.9242M12.9446 12.9433C12.6929 13.2135 12.3893 13.4302 12.0519 13.5805C11.7146 13.7308 11.3505 13.8117 10.9812 13.8182C10.612 13.8247 10.2452 13.7568 9.90278 13.6184C9.56036 13.4801 9.2493 13.2743 8.98816 13.0131C8.72703 12.752 8.52116 12.4409 8.38285 12.0985C8.24454 11.7561 8.17662 11.3893 8.18313 11.0201C8.18965 10.6508 8.27047 10.2867 8.42077 9.94936C8.57108 9.61203 8.78778 9.30843 9.05797 9.05666" stroke="#F6B83D" stroke-width="2" stroke-linecap="round" stroke-linejoin="round"/>
<path d="M0.917969 0.916672L21.0846 21.0833" stroke="#F6B83D" stroke-width="2" stroke-linecap="round" stroke-linejoin="round"/>
</g>
<defs>
<clipPath id="clip0_55848_2014">
<rect width="22" height="22" fill="white"/>
</clipPath>
</defs>

</symbol>
<symbol id="icon-eye" viewBox="0 0 22 22">

<g clip-path="url(#clip0_55848_2020)">
<path d="M0.916016 11C0.916016 11 4.58268 3.66667 10.9993 3.66667C17.416 3.66667 21.0827 11 21.0827 11C21.0827 11 17.416 18.3333 10.9993 18.3333C4.58268 18.3333 0.916016 11 0.916016 11Z" stroke="#F6B83D" stroke-width="2" stroke-linecap="round" stroke-linejoin="round"/>
<path d="M11 13.75C12.5188 13.75 13.75 12.5188 13.75 11C13.75 9.48122 12.5188 8.25 11 8.25C9.48122 8.25 8.25 9.48122 8.25 11C8.25 12.5188 9.48122 13.75 11 13.75Z" stroke="#F6B83D" stroke-width="2" stroke-linecap="round" stroke-linejoin="round"/>
</g>
<defs>
<clipPath id="clip0_55848_2020">
<rect width="22" height="22" fill="white"/>
</clipPath>
</defs>

</symbol>
<symbol id="icon-female" viewBox="0 0 40 40">

<rect width="40" height="40" rx="20" fill="#F43F5E" fill-opacity="0.1"/>
<path d="M20 21C22.7614 21 25 18.7614 25 16C25 13.2386 22.7614 11 20 11C17.2386 11 15 13.2386 15 16C15 18.7614 17.2386 21 20 21ZM20 21L20 29M17 26L23 26" stroke="#F43F5E" stroke-width="1.5" stroke-linecap="round" stroke-linejoin="round"/>

</symbol>
<symbol id="icon-icon" viewBox="0 0 50 50">

<circle cx="25" cy="25" r="25" fill="#FFF4DF"/>
<path d="M24.9999 28C21.8298 28 19.0106 29.5306 17.2158 31.906C16.8296 32.4172 16.6364 32.6728 16.6427 33.0183C16.6476 33.2852 16.8152 33.6219 17.0252 33.7867C17.297 34 17.6737 34 18.4271 34H31.5726C32.326 34 32.7027 34 32.9745 33.7867C33.1845 33.6219 33.3521 33.2852 33.357 33.0183C33.3633 32.6728 33.1701 32.4172 32.7839 31.906C30.9891 29.5306 28.1699 28 24.9999 28Z" fill="#F6B83D" stroke="#F6B83D" stroke-width="2" stroke-linecap="round" stroke-linejoin="round"/>
<path d="M25 25C27.4853 25 29.5 22.9853 29.5 20.5C29.5 18.0147 27.4853 16 25 16C22.5147 16 20.5 18.0147 20.5 20.5C20.5 22.9853 22.5147 25 25 25Z" fill="#F6B83D" stroke="#F6B83D" stroke-width="2" stroke-linecap="round" stroke-linejoin="round"/>

</symbol>
<symbol id="icon-image-1" viewBox="0 0 60 60">

<circle cx="30" cy="30" r="30" fill="#FFF4DF"/>
<path d="M14 44.24H46V12.24H14V44.24Z" fill="white"/>

</symbol>
<symbol id="icon-image" viewBox="0 0 60 60">

<circle cx="30" cy="30" r="30" fill="#FFF4DF"/>
<path d="M14 44.24H46V12.24H14V44.24Z" fill="white"/>

</symbol>
<symbol id="icon-logo" viewBox="0 0 106 32">

<path d="M9.38 25.42C7.87733 25.42 6.622 25.07 5.614 24.37C4.606 23.67 3.84533 22.718 3.332 21.514C2.828 20.31 2.576 18.952 2.576 17.44C2.576 15.928 2.828 14.57 3.332 13.366C3.836 12.162 4.578 11.21 5.558 10.51C6.538 9.81 7.74667 9.46 9.184 9.46C10.6307 9.46 11.8907 9.80533 12.964 10.496C14.0373 11.1867 14.868 12.134 15.456 13.338C16.0533 14.5327 16.352 15.9 16.352 17.44C16.352 18.952 16.058 20.31 15.47 21.514C14.8913 22.718 14.0793 23.67 13.034 24.37C11.9887 25.07 10.7707 25.42 9.38 25.42ZM1.932 31.72V9.88H5.292V20.24H5.768V31.72H1.932ZM8.764 22.032C9.58533 22.032 10.2573 21.8267 10.78 21.416C11.3027 21.0053 11.69 20.4547 11.942 19.764C12.194 19.064 12.32 18.2893 12.32 17.44C12.32 16.6 12.1893 15.8347 11.928 15.144C11.6667 14.444 11.2607 13.8887 10.71 13.478C10.1687 13.058 9.47333 12.848 8.624 12.848C7.83067 12.848 7.18667 13.0393 6.692 13.422C6.20667 13.8047 5.852 14.3413 5.628 15.032C5.404 15.7227 5.292 16.5253 5.292 17.44C5.292 18.3547 5.404 19.1573 5.628 19.848C5.852 20.5387 6.216 21.0753 6.72 21.458C7.23333 21.8407 7.91467 22.032 8.764 22.032ZM25.3407 25.42C23.7913 25.42 22.424 25.0887 21.2387 24.426C20.0627 23.754 19.1387 22.8347 18.4667 21.668C17.804 20.492 17.4727 19.148 17.4727 17.636C17.4727 15.984 17.7993 14.5467 18.4527 13.324C19.106 12.1013 20.0067 11.154 21.1547 10.482C22.3027 9.80067 23.6233 9.46 25.1167 9.46C26.7033 9.46 28.052 9.83333 29.1627 10.58C30.2733 11.3267 31.0947 12.3767 31.6267 13.73C32.1587 15.0833 32.3453 16.6747 32.1867 18.504H28.4207V17.104C28.4207 15.564 28.1733 14.458 27.6787 13.786C27.1933 13.1047 26.3953 12.764 25.2847 12.764C23.9873 12.764 23.0307 13.1607 22.4147 13.954C21.808 14.738 21.5047 15.9 21.5047 17.44C21.5047 18.8493 21.808 19.9413 22.4147 20.716C23.0307 21.4813 23.9313 21.864 25.1167 21.864C25.8633 21.864 26.5027 21.7007 27.0347 21.374C27.5667 21.0473 27.9727 20.576 28.2527 19.96L32.0607 21.052C31.4913 22.4333 30.5907 23.5067 29.3587 24.272C28.136 25.0373 26.7967 25.42 25.3407 25.42ZM20.3287 18.504V15.676H30.3527V18.504H20.3287ZM43.2998 25C42.2545 25.196 41.2278 25.28 40.2198 25.252C39.2211 25.2333 38.3251 25.0607 37.5318 24.734C36.7478 24.398 36.1505 23.8613 35.7398 23.124C35.3665 22.4333 35.1705 21.7333 35.1518 21.024C35.1331 20.3053 35.1238 19.4933 35.1238 18.588V5.68H38.9318V18.364C38.9318 18.952 38.9365 19.484 38.9458 19.96C38.9645 20.4267 39.0625 20.8 39.2398 21.08C39.5758 21.612 40.1125 21.9013 40.8498 21.948C41.5871 21.9947 42.4038 21.9573 43.2998 21.836V25ZM32.5478 12.82V9.88H43.2998V12.82H32.5478ZM45.8292 25V4.42H49.6372V25H45.8292Z" fill="white"/>
<path fill-rule="evenodd" clip-rule="evenodd" d="M63.4935 10.4345C61.6541 8.26268 58.5868 7.67848 56.2821 9.66718C53.9775 11.6559 53.653 14.9809 55.4629 17.333C56.6221 18.8395 59.5909 21.6331 61.5756 23.447C62.2351 24.0498 62.5649 24.3512 62.9599 24.4721C63.2995 24.576 63.6875 24.576 64.0271 24.4721C64.4221 24.3512 64.7519 24.0498 65.4114 23.447C67.3961 21.6331 70.3649 18.8395 71.5241 17.333C73.334 14.9809 73.0491 11.635 70.7049 9.66718C68.3606 7.6994 65.3329 8.26268 63.4935 10.4345Z" fill="white"/>
<path d="M81.048 25L75.56 9.88H78.934L82.742 20.842L86.536 9.88H89.924L84.436 25H81.048ZM97.6437 25.42C96.113 25.42 94.769 25.0887 93.6117 24.426C92.4544 23.7633 91.549 22.844 90.8957 21.668C90.2517 20.492 89.9297 19.1387 89.9297 17.608C89.9297 15.956 90.247 14.5233 90.8817 13.31C91.5164 12.0873 92.3984 11.14 93.5277 10.468C94.657 9.796 95.9637 9.46 97.4477 9.46C99.0157 9.46 100.346 9.82867 101.438 10.566C102.539 11.294 103.356 12.3253 103.888 13.66C104.42 14.9947 104.62 16.5673 104.49 18.378H101.144V17.146C101.134 15.5033 100.845 14.304 100.276 13.548C99.7064 12.792 98.8104 12.414 97.5877 12.414C96.2064 12.414 95.1797 12.8433 94.5077 13.702C93.8357 14.5513 93.4997 15.7973 93.4997 17.44C93.4997 18.9707 93.8357 20.156 94.5077 20.996C95.1797 21.836 96.1597 22.256 97.4477 22.256C98.2784 22.256 98.9924 22.074 99.5897 21.71C100.196 21.3367 100.663 20.8 100.99 20.1L104.322 21.108C103.743 22.4707 102.847 23.53 101.634 24.286C100.43 25.042 99.0997 25.42 97.6437 25.42ZM92.4357 18.378V15.83H102.838V18.378H92.4357Z" fill="white"/>

</symbol>
<symbol id="icon-logomain" viewBox="0 0 105 32">

<path d="M9.226 25.42C7.75133 25.42 6.51467 25.07 5.516 24.37C4.51733 23.67 3.766 22.718 3.262 21.514C2.758 20.3007 2.506 18.9427 2.506 17.44C2.506 15.9187 2.758 14.556 3.262 13.352C3.766 12.148 4.50333 11.2007 5.474 10.51C6.454 9.81 7.66267 9.46 9.1 9.46C10.528 9.46 11.7647 9.81 12.81 10.51C13.8647 11.2007 14.6813 12.148 15.26 13.352C15.8387 14.5467 16.128 15.9093 16.128 17.44C16.128 18.952 15.8433 20.31 15.274 21.514C14.7047 22.718 13.902 23.67 12.866 24.37C11.83 25.07 10.6167 25.42 9.226 25.42ZM1.932 31.72V9.88H4.914V20.492H5.334V31.72H1.932ZM8.708 22.396C9.58533 22.396 10.3087 22.1767 10.878 21.738C11.4473 21.2993 11.8673 20.7067 12.138 19.96C12.418 19.204 12.558 18.364 12.558 17.44C12.558 16.5253 12.418 15.6947 12.138 14.948C11.858 14.192 11.424 13.5947 10.836 13.156C10.248 12.708 9.50133 12.484 8.596 12.484C7.73733 12.484 7.03733 12.694 6.496 13.114C5.95467 13.5247 5.55333 14.1033 5.292 14.85C5.04 15.5873 4.914 16.4507 4.914 17.44C4.914 18.42 5.04 19.2833 5.292 20.03C5.55333 20.7767 5.95933 21.36 6.51 21.78C7.07 22.1907 7.80267 22.396 8.708 22.396ZM24.9679 25.42C23.4372 25.42 22.0932 25.0887 20.9359 24.426C19.7786 23.7633 18.8732 22.844 18.2199 21.668C17.5759 20.492 17.2539 19.1387 17.2539 17.608C17.2539 15.956 17.5712 14.5233 18.2059 13.31C18.8406 12.0873 19.7226 11.14 20.8519 10.468C21.9812 9.796 23.2879 9.46 24.7719 9.46C26.3399 9.46 27.6699 9.82867 28.7619 10.566C29.8632 11.294 30.6799 12.3253 31.2119 13.66C31.7439 14.9947 31.9446 16.5673 31.8139 18.378H28.4679V17.146C28.4586 15.5033 28.1692 14.304 27.5999 13.548C27.0306 12.792 26.1346 12.414 24.9119 12.414C23.5306 12.414 22.5039 12.8433 21.8319 13.702C21.1599 14.5513 20.8239 15.7973 20.8239 17.44C20.8239 18.9707 21.1599 20.156 21.8319 20.996C22.5039 21.836 23.4839 22.256 24.7719 22.256C25.6026 22.256 26.3166 22.074 26.9139 21.71C27.5206 21.3367 27.9872 20.8 28.3139 20.1L31.6459 21.108C31.0672 22.4707 30.1712 23.53 28.9579 24.286C27.7539 25.042 26.4239 25.42 24.9679 25.42ZM19.7599 18.378V15.83H30.1619V18.378H19.7599ZM42.6797 25C41.681 25.1867 40.701 25.266 39.7397 25.238C38.7877 25.2193 37.9337 25.0467 37.1777 24.72C36.4217 24.384 35.8477 23.8567 35.4557 23.138C35.1103 22.4847 34.9283 21.8173 34.9097 21.136C34.891 20.4547 34.8817 19.6847 34.8817 18.826V5.68H38.2417V18.63C38.2417 19.2367 38.2463 19.7687 38.2557 20.226C38.2743 20.6833 38.3723 21.0567 38.5497 21.346C38.8857 21.906 39.4223 22.2187 40.1597 22.284C40.897 22.3493 41.737 22.312 42.6797 22.172V25ZM32.1377 12.526V9.88H42.6797V12.526H32.1377ZM45.0909 25V4.42H48.4649V25H45.0909Z" fill="#262626"/>
<path fill-rule="evenodd" clip-rule="evenodd" d="M62.4935 10.4345C60.6541 8.26268 57.5868 7.67848 55.2821 9.66718C52.9775 11.6559 52.653 14.9809 54.4629 17.333C55.6221 18.8395 58.5909 21.6331 60.5756 23.447C61.2351 24.0498 61.5649 24.3512 61.9599 24.4721C62.2995 24.576 62.6875 24.576 63.0271 24.4721C63.4221 24.3512 63.7519 24.0498 64.4114 23.447C66.3961 21.6331 69.3649 18.8395 70.5241 17.333C72.334 14.9809 72.0491 11.635 69.7049 9.66718C67.3606 7.6994 64.3329 8.26268 62.4935 10.4345Z" fill="#F6B83D"/>
<path d="M80.048 25L74.56 9.88H77.934L81.742 20.842L85.536 9.88H88.924L83.436 25H80.048ZM96.6437 25.42C95.113 25.42 93.769 25.0887 92.6117 24.426C91.4544 23.7633 90.549 22.844 89.8957 21.668C89.2517 20.492 88.9297 19.1387 88.9297 17.608C88.9297 15.956 89.247 14.5233 89.8817 13.31C90.5164 12.0873 91.3984 11.14 92.5277 10.468C93.657 9.796 94.9637 9.46 96.4477 9.46C98.0157 9.46 99.3457 9.82867 100.438 10.566C101.539 11.294 102.356 12.3253 102.888 13.66C103.42 14.9947 103.62 16.5673 103.49 18.378H100.144V17.146C100.134 15.5033 99.845 14.304 99.2757 13.548C98.7064 12.792 97.8104 12.414 96.5877 12.414C95.2064 12.414 94.1797 12.8433 93.5077 13.702C92.8357 14.5513 92.4997 15.7973 92.4997 17.44C92.4997 18.9707 92.8357 20.156 93.5077 20.996C94.1797 21.836 95.1597 22.256 96.4477 22.256C97.2784 22.256 97.9924 22.074 98.5897 21.71C99.1964 21.3367 99.663 20.8 99.9897 20.1L103.322 21.108C102.743 22.4707 101.847 23.53 100.634 24.286C99.4297 25.042 98.0997 25.42 96.6437 25.42ZM91.4357 18.378V15.83H101.838V18.378H91.4357Z" fill="#262626"/>

</symbol>
<symbol id="icon-male" viewBox="0 0 40 40">

<rect width="40" height="40" rx="20" fill="#54ADFF" fill-opacity="0.1"/>
<path d="M20 19C17.2386 19 15 21.2386 15 24C15 26.7614 17.2386 29 20 29C22.7614 29 25 26.7614 25 24C25 21.2386 22.7614 19 20 19ZM20 19V11M16 15L20 11L24 15" stroke="#54ADFF" stroke-width="2" stroke-linecap="round" stroke-linejoin="round"/>

</symbol>

<symbol id="icon-multiple" viewBox="0 0 32 32">
<path fill="#f6b83d" style="fill: var(--color1, #f6b83d)" d="M11.694 10.327c-0.957-0.374-2.010-0.421-2.997-0.135s-1.851 0.89-2.459 1.718c-0.608 0.828-0.926 1.833-0.905 2.86s0.382 2.018 1.024 2.82 1.532 1.369 2.529 1.613c0.998 0.245 2.048 0.153 2.988-0.261s1.718-1.126 2.212-2.026c0.494-0.901 0.677-1.939 0.52-2.954-0.013-0.087-0.009-0.175 0.011-0.26s0.058-0.165 0.11-0.236c0.052-0.071 0.117-0.13 0.192-0.176s0.158-0.076 0.244-0.089 0.175-0.009 0.26 0.011c0.085 0.021 0.165 0.058 0.236 0.11s0.13 0.117 0.176 0.192c0.045 0.075 0.076 0.158 0.089 0.244 0.201 1.305-0.034 2.64-0.67 3.798s-1.635 2.073-2.844 2.605c-1.209 0.531-2.559 0.649-3.842 0.335s-2.426-1.044-3.252-2.074c-0.826-1.031-1.289-2.305-1.316-3.625s0.381-2.613 1.163-3.677 1.893-1.841 3.162-2.209c1.268-0.368 2.623-0.307 3.853 0.173 0.083 0.031 0.158 0.078 0.223 0.139s0.116 0.133 0.152 0.214c0.036 0.081 0.056 0.168 0.058 0.256s-0.013 0.176-0.045 0.258c-0.032 0.082-0.080 0.157-0.142 0.221s-0.135 0.114-0.216 0.149c-0.081 0.035-0.168 0.053-0.257 0.054s-0.176-0.015-0.258-0.048z"></path>
<path fill="#f6b83d" style="fill: var(--color1, #f6b83d)" d="M9.331 26v-5.331c0-0.177 0.070-0.346 0.195-0.471s0.294-0.195 0.471-0.195c0.177 0 0.346 0.070 0.471 0.195s0.195 0.295 0.195 0.471v5.331c0 0.177-0.070 0.346-0.195 0.471s-0.294 0.195-0.471 0.195c-0.177 0-0.346-0.070-0.471-0.195s-0.195-0.294-0.195-0.471z"></path>
<path fill="#f6b83d" style="fill: var(--color1, #f6b83d)" d="M7.332 22.668c0-0.177 0.070-0.346 0.195-0.471s0.294-0.195 0.471-0.195h3.998c0.177 0 0.346 0.070 0.471 0.195s0.195 0.295 0.195 0.471c0 0.177-0.070 0.346-0.195 0.471s-0.294 0.195-0.471 0.195h-3.998c-0.177 0-0.346-0.070-0.471-0.195s-0.195-0.294-0.195-0.471zM19.262 10.182c-0.739-0.209-1.517-0.232-2.267-0.067s-1.447 0.511-2.030 1.010-1.035 1.133-1.315 1.848c-0.28 0.715-0.379 1.487-0.288 2.249 0.011 0.087 0.004 0.176-0.019 0.26s-0.063 0.164-0.118 0.233c-0.054 0.069-0.121 0.127-0.198 0.17s-0.161 0.071-0.248 0.081c-0.087 0.010-0.176 0.003-0.26-0.021s-0.163-0.064-0.232-0.119-0.126-0.122-0.169-0.199c-0.043-0.077-0.070-0.161-0.080-0.249-0.156-1.311 0.126-2.638 0.801-3.773s1.706-2.016 2.933-2.505c1.227-0.489 2.58-0.56 3.851-0.201s2.388 1.127 3.178 2.185c0.79 1.059 1.208 2.348 1.19 3.669s-0.471 2.598-1.29 3.635-1.956 1.774-3.236 2.098c-1.28 0.324-2.632 0.216-3.845-0.307-0.080-0.035-0.153-0.085-0.214-0.147s-0.109-0.137-0.141-0.218c-0.065-0.164-0.063-0.348 0.007-0.51s0.201-0.29 0.366-0.356c0.164-0.065 0.348-0.063 0.51 0.007 0.586 0.253 1.218 0.382 1.857 0.381s1.27-0.134 1.855-0.389c0.585-0.255 1.112-0.628 1.547-1.095s0.77-1.018 0.983-1.62c0.214-0.602 0.301-1.241 0.258-1.878s-0.217-1.258-0.51-1.825-0.7-1.068-1.194-1.472c-0.495-0.404-1.067-0.701-1.681-0.875z"></path>
<path fill="#f6b83d" style="fill: var(--color1, #f6b83d)" d="M21.855 11.477c-0.125-0.125-0.195-0.294-0.195-0.471s0.070-0.346 0.195-0.471l4.998-4.998c0.061-0.064 0.135-0.114 0.216-0.149s0.169-0.053 0.257-0.054c0.088-0.001 0.176 0.016 0.258 0.050s0.156 0.083 0.219 0.146c0.063 0.063 0.112 0.137 0.146 0.219s0.050 0.17 0.050 0.258c-0.001 0.088-0.019 0.176-0.054 0.257s-0.086 0.155-0.149 0.216l-4.998 4.998c-0.125 0.125-0.295 0.195-0.471 0.195s-0.346-0.070-0.471-0.195z"></path>
<path fill="#f6b83d" style="fill: var(--color1, #f6b83d)" d="M27.273 10.007c-0.088-0.001-0.174-0.020-0.254-0.054s-0.153-0.085-0.214-0.147c-0.061-0.063-0.109-0.137-0.142-0.218s-0.049-0.168-0.047-0.256l0.033-2.648-2.648 0.033c-0.177 0.002-0.347-0.066-0.474-0.189s-0.199-0.292-0.201-0.469 0.066-0.347 0.189-0.474c0.123-0.127 0.292-0.199 0.469-0.201l4.016-0.051-0.051 4.016c-0.001 0.088-0.019 0.174-0.054 0.254s-0.085 0.153-0.147 0.214c-0.063 0.061-0.137 0.109-0.218 0.142s-0.168 0.049-0.256 0.047z"></path>
</symbol>

<symbol id="icon-rectangle-4566" viewBox="0 0 132 52">

<rect width="132" height="52" fill="#F6B83D"/>

</symbol>
<symbol id="icon-search" viewBox="0 0 18 18">

<path d="M8.25 14.25C11.5637 14.25 14.25 11.5637 14.25 8.25C14.25 4.93629 11.5637 2.25 8.25 2.25C4.93629 2.25 2.25 4.93629 2.25 8.25C2.25 11.5637 4.93629 14.25 8.25 14.25Z" stroke="#262626" stroke-width="2" stroke-linecap="round" stroke-linejoin="round"/>
<path d="M15.7508 15.75L12.4883 12.4875" stroke="#262626" stroke-width="2" stroke-linecap="round" stroke-linejoin="round"/>

</symbol>
<symbol id="icon-star" viewBox="0 0 16 16">

<g clip-path="url(#clip0_55857_2203)">
<path d="M9.7998 4.69727C9.95896 4.99878 10.249 5.20939 10.585 5.26758L14.3848 5.92383L11.6973 8.69141C11.4597 8.93598 11.3489 9.27679 11.3975 9.61426L11.9463 13.4316L8.48535 11.7305L8.36816 11.6807C8.13008 11.5961 7.86992 11.5961 7.63184 11.6807L7.51465 11.7305L4.05273 13.4316L4.60254 9.61426C4.65107 9.27679 4.54025 8.93598 4.30273 8.69141L1.61426 5.92383L5.41504 5.26758C5.75098 5.20939 6.04104 4.99878 6.2002 4.69727L8 1.28613L9.7998 4.69727Z" fill="#FFC531" stroke="#FFC531" stroke-width="1.2"/>
</g>
<defs>
<clipPath id="clip0_55857_2203">
<rect width="16" height="16" fill="white"/>
</clipPath>
</defs>

</symbol>

<symbol id="icon-menu-01" viewBox="0 0 32 32">
<path stroke-linejoin="round" stroke-linecap="round" stroke-miterlimit="4" stroke-width="3" d="M4 16h24"></path>
<path stroke-linejoin="round" stroke-linecap="round" stroke-miterlimit="4" stroke-width="3" d="M4 8h24"></path>
<path stroke-linejoin="round" stroke-linecap="round" stroke-miterlimit="4" stroke-width="3" d="M4 24h24"></path>
</symbol>

<symbol id="icon-x" viewBox="0 0 32 32">
<path stroke-linejoin="round" stroke-linecap="round" stroke-miterlimit="4" stroke-width="3" d="M24 8l-16 16"></path>
<path stroke-linejoin="round" stroke-linecap="round" stroke-miterlimit="4" stroke-width="3" d="M8 8l16 16"></path>
</symbol>

<symbol id="icon-heart" viewBox="0 0 32 32">
<path stroke-linejoin="round" stroke-linecap="round" stroke-miterlimit="4" stroke-width="2.6667" d="M27.787 6.147c-0.681-0.681-1.49-1.222-2.38-1.591s-1.844-0.559-2.807-0.559c-0.963 0-1.917 0.19-2.807 0.559s-1.698 0.909-2.38 1.591l-1.413 1.413-1.413-1.413c-1.376-1.376-3.241-2.148-5.187-2.148s-3.811 0.773-5.187 2.148c-1.376 1.376-2.148 3.241-2.148 5.187s0.773 3.811 2.148 5.187l11.787 11.787 11.787-11.787c0.681-0.681 1.222-1.49 1.591-2.38s0.559-1.844 0.559-2.807c0-0.963-0.19-1.917-0.559-2.807s-0.909-1.699-1.591-2.38z"></path>
</symbol>

<symbol id="icon-user" viewBox="0 0 32 32">
<path fill="#fff" style="fill: var(--color1, #fff); stroke: var(--color1, #fff)" stroke="#fff" stroke-linejoin="round" stroke-linecap="round" stroke-miterlimit="4" stroke-width="3.5556" d="M16.001 20c-4.227 0-7.986 2.041-10.379 5.208-0.515 0.682-0.773 1.022-0.764 1.483 0.007 0.356 0.23 0.805 0.51 1.025 0.362 0.284 0.865 0.284 1.869 0.284h17.527c1.004 0 1.507 0 1.869-0.284 0.28-0.22 0.503-0.669 0.51-1.025 0.009-0.461-0.249-0.801-0.764-1.483-2.393-3.167-6.152-5.208-10.379-5.208z"></path>
<path fill="#fff" style="fill: var(--color1, #fff); stroke: var(--color1, #fff)" stroke="#fff" stroke-linejoin="round" stroke-linecap="round" stroke-miterlimit="4" stroke-width="3.5556" d="M16 16c3.314 0 6-2.686 6-6s-2.686-6-6-6c-3.314 0-6 2.686-6 6s2.686 6 6 6z"></path>
</symbol>

<symbol id="icon-edit" viewBox="0 0 32 32">
<path fill="none" stroke="#f6b83d" style="stroke: var(--color1, #f6b83d)" stroke-linejoin="round" stroke-linecap="round" stroke-miterlimit="4" stroke-width="2.6667" d="M22.667 4c0.35-0.35 0.766-0.628 1.223-0.817s0.948-0.287 1.443-0.287c0.495 0 0.986 0.098 1.443 0.287s0.873 0.467 1.223 0.817c0.35 0.35 0.628 0.766 0.817 1.223s0.287 0.948 0.287 1.443c0 0.495-0.098 0.986-0.287 1.443s-0.467 0.873-0.817 1.223l-18 18-7.333 2 2-7.333 18-18z"></path>
</symbol>

<symbol id="icon-upload-cloud" viewBox="0 0 32 32">
<path fill="none" stroke="#f6b83d" style="stroke: var(--color1, #f6b83d)" stroke-linejoin="round" stroke-linecap="round" stroke-miterlimit="4" stroke-width="2.3111" d="M16 16v12"></path>
<path fill="none" stroke="#f6b83d" style="stroke: var(--color1, #f6b83d)" stroke-linejoin="round" stroke-linecap="round" stroke-miterlimit="4" stroke-width="2.3111" d="M27.187 24.52c1.3-0.709 2.328-1.831 2.92-3.188s0.715-2.874 0.35-4.309-1.198-2.708-2.367-3.618c-1.169-0.909-2.608-1.404-4.089-1.405h-1.68c-0.404-1.561-1.156-3.010-2.2-4.239s-2.353-2.204-3.829-2.854-3.079-0.956-4.691-0.897c-1.611 0.059-3.188 0.483-4.612 1.24s-2.658 1.826-3.609 3.128c-0.951 1.302-1.595 2.803-1.882 4.389s-0.212 3.217 0.222 4.77c0.433 1.553 1.213 2.988 2.281 4.196"></path>
<path fill="none" stroke="#f6b83d" style="stroke: var(--color1, #f6b83d)" stroke-linejoin="round" stroke-linecap="round" stroke-miterlimit="4" stroke-width="2.3111" d="M21.333 21.333l-5.333-5.333-5.333 5.333"></path>
</symbol>

<symbol id="icon-trash" viewBox="0 0 32 32">
<path fill="none" stroke="#f6b83d" style="stroke: var(--color1, #f6b83d)" stroke-linejoin="round" stroke-linecap="round" stroke-miterlimit="4" stroke-width="2.6667" d="M4 8h24"></path>
<path fill="none" stroke="#f6b83d" style="stroke: var(--color1, #f6b83d)" stroke-linejoin="round" stroke-linecap="round" stroke-miterlimit="4" stroke-width="2.6667" d="M25.333 8v18.667c0 0.707-0.281 1.386-0.781 1.886s-1.178 0.781-1.886 0.781h-13.333c-0.707 0-1.386-0.281-1.886-0.781s-0.781-1.178-0.781-1.886v-18.667M10.667 8v-2.667c0-0.707 0.281-1.386 0.781-1.886s1.178-0.781 1.886-0.781h5.333c0.707 0 1.386 0.281 1.886 0.781s0.781 1.178 0.781 1.886v2.667"></path>
<path fill="none" stroke="#f6b83d" style="stroke: var(--color1, #f6b83d)" stroke-linejoin="round" stroke-linecap="round" stroke-miterlimit="4" stroke-width="2.6667" d="M13.333 14.667v8"></path>
<path fill="none" stroke="#f6b83d" style="stroke: var(--color1, #f6b83d)" stroke-linejoin="round" stroke-linecap="round" stroke-miterlimit="4" stroke-width="2.6667" d="M18.667 14.667v8"></path>
</symbol>

<symbol id="icon-star" viewBox="0 0 32 32">
<path fill="#ffc531" style="fill: var(--color1, #ffc531); stroke: var(--color1, #ffc531)" stroke="#ffc531" stroke-linejoin="miter" stroke-linecap="butt" stroke-miterlimit="4" stroke-width="2.4" d="M19.6 9.395c0.318 0.603 0.898 1.024 1.57 1.141l7.6 1.313-5.375 5.535c-0.475 0.489-0.697 1.171-0.6 1.846l1.098 7.635-6.922-3.402-0.234-0.1c-0.476-0.169-0.996-0.169-1.473 0l-0.234 0.1-6.924 3.402 1.1-7.635c0.097-0.675-0.125-1.357-0.6-1.846l-5.377-5.535 7.602-1.313c0.672-0.116 1.252-0.538 1.57-1.141l3.6-6.822 3.6 6.822z"></path>
</symbol>


</svg>