<svg xmlns="http://www.w3.org/2000/svg" style="display:none">
<symbol id="icon---" viewBox="0 0 32 32">

<path d="M0 32H32V1.90735e-06H0V32Z" fill="white"/>

</symbol>
<symbol id="icon-calendar" viewBox="0 0 20 20">

<path d="M15.8333 3.33333H4.16667C3.24619 3.33333 2.5 4.07952 2.5 4.99999V16.6667C2.5 17.5871 3.24619 18.3333 4.16667 18.3333H15.8333C16.7538 18.3333 17.5 17.5871 17.5 16.6667V4.99999C17.5 4.07952 16.7538 3.33333 15.8333 3.33333Z" stroke="#262626" stroke-width="1.8" stroke-linecap="round" stroke-linejoin="round"/>
<path d="M13.333 1.66667V5" stroke="#262626" stroke-width="1.8" stroke-linecap="round" stroke-linejoin="round"/>
<path d="M6.66699 1.66667V5" stroke="#262626" stroke-width="1.8" stroke-linecap="round" stroke-linejoin="round"/>
<path d="M2.5 8.33333H17.5" stroke="#262626" stroke-width="1.8" stroke-linecap="round" stroke-linejoin="round"/>

</symbol>
<symbol id="icon-check" viewBox="0 0 22 22">

<path d="M18.3337 6.41667L8.25042 16.5L3.66699 11.9167" stroke="#08AA83" stroke-width="1.5" stroke-linecap="round" stroke-linejoin="round"/>

</symbol>
<symbol id="icon-chevron-down" viewBox="0 0 18 18">

<path d="M4.5 6.75L9 11.25L13.5 6.75" stroke="#262626" stroke-width="2" stroke-linecap="round" stroke-linejoin="round"/>

</symbol>
<symbol id="icon-cross-small" viewBox="0 0 22 22">

<path d="M17.4163 4.58333L4.58301 17.4167M4.58305 4.58333L17.4163 17.4167" stroke="#EF2447" stroke-width="2" stroke-linecap="round" stroke-linejoin="round"/>

</symbol>
<symbol id="icon-eye-off" viewBox="0 0 22 22">

<g clip-path="url(#clip0_55848_2014)">
<path d="M16.4463 16.445C14.8793 17.6394 12.9713 18.3011 11.0013 18.3333C4.58464 18.3333 0.917969 11 0.917969 11C2.0582 8.87507 3.63968 7.01855 5.5563 5.555M9.0763 3.88666C9.70727 3.73897 10.3533 3.66514 11.0013 3.66666C17.418 3.66666 21.0846 11 21.0846 11C20.5282 12.041 19.8646 13.021 19.1046 13.9242M12.9446 12.9433C12.6929 13.2135 12.3893 13.4302 12.0519 13.5805C11.7146 13.7308 11.3505 13.8117 10.9812 13.8182C10.612 13.8247 10.2452 13.7568 9.90278 13.6184C9.56036 13.4801 9.2493 13.2743 8.98816 13.0131C8.72703 12.752 8.52116 12.4409 8.38285 12.0985C8.24454 11.7561 8.17662 11.3893 8.18313 11.0201C8.18965 10.6508 8.27047 10.2867 8.42077 9.94936C8.57108 9.61203 8.78778 9.30843 9.05797 9.05666" stroke="#F6B83D" stroke-width="2" stroke-linecap="round" stroke-linejoin="round"/>
<path d="M0.917969 0.916672L21.0846 21.0833" stroke="#F6B83D" stroke-width="2" stroke-linecap="round" stroke-linejoin="round"/>
</g>
<defs>
<clipPath id="clip0_55848_2014">
<rect width="22" height="22" fill="white"/>
</clipPath>
</defs>

</symbol>
<symbol id="icon-eye" viewBox="0 0 22 22">

<g clip-path="url(#clip0_55848_2020)">
<path d="M0.916016 11C0.916016 11 4.58268 3.66667 10.9993 3.66667C17.416 3.66667 21.0827 11 21.0827 11C21.0827 11 17.416 18.3333 10.9993 18.3333C4.58268 18.3333 0.916016 11 0.916016 11Z" stroke="#F6B83D" stroke-width="2" stroke-linecap="round" stroke-linejoin="round"/>
<path d="M11 13.75C12.5188 13.75 13.75 12.5188 13.75 11C13.75 9.48122 12.5188 8.25 11 8.25C9.48122 8.25 8.25 9.48122 8.25 11C8.25 12.5188 9.48122 13.75 11 13.75Z" stroke="#F6B83D" stroke-width="2" stroke-linecap="round" stroke-linejoin="round"/>
</g>
<defs>
<clipPath id="clip0_55848_2020">
<rect width="22" height="22" fill="white"/>
</clipPath>
</defs>

</symbol>
<symbol id="icon-female" viewBox="0 0 40 40">

<rect width="40" height="40" rx="20" fill="#F43F5E" fill-opacity="0.1"/>
<path d="M20 21C22.7614 21 25 18.7614 25 16C25 13.2386 22.7614 11 20 11C17.2386 11 15 13.2386 15 16C15 18.7614 17.2386 21 20 21ZM20 21L20 29M17 26L23 26" stroke="#F43F5E" stroke-width="1.5" stroke-linecap="round" stroke-linejoin="round"/>

</symbol>
<symbol id="icon-icon" viewBox="0 0 50 50">

<circle cx="25" cy="25" r="25" fill="#FFF4DF"/>
<path d="M24.9999 28C21.8298 28 19.0106 29.5306 17.2158 31.906C16.8296 32.4172 16.6364 32.6728 16.6427 33.0183C16.6476 33.2852 16.8152 33.6219 17.0252 33.7867C17.297 34 17.6737 34 18.4271 34H31.5726C32.326 34 32.7027 34 32.9745 33.7867C33.1845 33.6219 33.3521 33.2852 33.357 33.0183C33.3633 32.6728 33.1701 32.4172 32.7839 31.906C30.9891 29.5306 28.1699 28 24.9999 28Z" fill="#F6B83D" stroke="#F6B83D" stroke-width="2" stroke-linecap="round" stroke-linejoin="round"/>
<path d="M25 25C27.4853 25 29.5 22.9853 29.5 20.5C29.5 18.0147 27.4853 16 25 16C22.5147 16 20.5 18.0147 20.5 20.5C20.5 22.9853 22.5147 25 25 25Z" fill="#F6B83D" stroke="#F6B83D" stroke-width="2" stroke-linecap="round" stroke-linejoin="round"/>

</symbol>
<symbol id="icon-image-1" viewBox="0 0 60 60">

<circle cx="30" cy="30" r="30" fill="#FFF4DF"/>
<path d="M14 44.24H46V12.24H14V44.24Z" fill="white"/>

</symbol>
<symbol id="icon-image" viewBox="0 0 60 60">

<circle cx="30" cy="30" r="30" fill="#FFF4DF"/>
<path d="M14 44.24H46V12.24H14V44.24Z" fill="white"/>

</symbol>
<symbol id="icon-logo" viewBox="0 0 106 32">

<path d="M9.38 25.42C7.87733 25.42 6.622 25.07 5.614 24.37C4.606 23.67 3.84533 22.718 3.332 21.514C2.828 20.31 2.576 18.952 2.576 17.44C2.576 15.928 2.828 14.57 3.332 13.366C3.836 12.162 4.578 11.21 5.558 10.51C6.538 9.81 7.74667 9.46 9.184 9.46C10.6307 9.46 11.8907 9.80533 12.964 10.496C14.0373 11.1867 14.868 12.134 15.456 13.338C16.0533 14.5327 16.352 15.9 16.352 17.44C16.352 18.952 16.058 20.31 15.47 21.514C14.8913 22.718 14.0793 23.67 13.034 24.37C11.9887 25.07 10.7707 25.42 9.38 25.42ZM1.932 31.72V9.88H5.292V20.24H5.768V31.72H1.932ZM8.764 22.032C9.58533 22.032 10.2573 21.8267 10.78 21.416C11.3027 21.0053 11.69 20.4547 11.942 19.764C12.194 19.064 12.32 18.2893 12.32 17.44C12.32 16.6 12.1893 15.8347 11.928 15.144C11.6667 14.444 11.2607 13.8887 10.71 13.478C10.1687 13.058 9.47333 12.848 8.624 12.848C7.83067 12.848 7.18667 13.0393 6.692 13.422C6.20667 13.8047 5.852 14.3413 5.628 15.032C5.404 15.7227 5.292 16.5253 5.292 17.44C5.292 18.3547 5.404 19.1573 5.628 19.848C5.852 20.5387 6.216 21.0753 6.72 21.458C7.23333 21.8407 7.91467 22.032 8.764 22.032ZM25.3407 25.42C23.7913 25.42 22.424 25.0887 21.2387 24.426C20.0627 23.754 19.1387 22.8347 18.4667 21.668C17.804 20.492 17.4727 19.148 17.4727 17.636C17.4727 15.984 17.7993 14.5467 18.4527 13.324C19.106 12.1013 20.0067 11.154 21.1547 10.482C22.3027 9.80067 23.6233 9.46 25.1167 9.46C26.7033 9.46 28.052 9.83333 29.1627 10.58C30.2733 11.3267 31.0947 12.3767 31.6267 13.73C32.1587 15.0833 32.3453 16.6747 32.1867 18.504H28.4207V17.104C28.4207 15.564 28.1733 14.458 27.6787 13.786C27.1933 13.1047 26.3953 12.764 25.2847 12.764C23.9873 12.764 23.0307 13.1607 22.4147 13.954C21.808 14.738 21.5047 15.9 21.5047 17.44C21.5047 18.8493 21.808 19.9413 22.4147 20.716C23.0307 21.4813 23.9313 21.864 25.1167 21.864C25.8633 21.864 26.5027 21.7007 27.0347 21.374C27.5667 21.0473 27.9727 20.576 28.2527 19.96L32.0607 21.052C31.4913 22.4333 30.5907 23.5067 29.3587 24.272C28.136 25.0373 26.7967 25.42 25.3407 25.42ZM20.3287 18.504V15.676H30.3527V18.504H20.3287ZM43.2998 25C42.2545 25.196 41.2278 25.28 40.2198 25.252C39.2211 25.2333 38.3251 25.0607 37.5318 24.734C36.7478 24.398 36.1505 23.8613 35.7398 23.124C35.3665 22.4333 35.1705 21.7333 35.1518 21.024C35.1331 20.3053 35.1238 19.4933 35.1238 18.588V5.68H38.9318V18.364C38.9318 18.952 38.9365 19.484 38.9458 19.96C38.9645 20.4267 39.0625 20.8 39.2398 21.08C39.5758 21.612 40.1125 21.9013 40.8498 21.948C41.5871 21.9947 42.4038 21.9573 43.2998 21.836V25ZM32.5478 12.82V9.88H43.2998V12.82H32.5478ZM45.8292 25V4.42H49.6372V25H45.8292Z" fill="white"/>
<path fill-rule="evenodd" clip-rule="evenodd" d="M63.4935 10.4345C61.6541 8.26268 58.5868 7.67848 56.2821 9.66718C53.9775 11.6559 53.653 14.9809 55.4629 17.333C56.6221 18.8395 59.5909 21.6331 61.5756 23.447C62.2351 24.0498 62.5649 24.3512 62.9599 24.4721C63.2995 24.576 63.6875 24.576 64.0271 24.4721C64.4221 24.3512 64.7519 24.0498 65.4114 23.447C67.3961 21.6331 70.3649 18.8395 71.5241 17.333C73.334 14.9809 73.0491 11.635 70.7049 9.66718C68.3606 7.6994 65.3329 8.26268 63.4935 10.4345Z" fill="white"/>
<path d="M81.048 25L75.56 9.88H78.934L82.742 20.842L86.536 9.88H89.924L84.436 25H81.048ZM97.6437 25.42C96.113 25.42 94.769 25.0887 93.6117 24.426C92.4544 23.7633 91.549 22.844 90.8957 21.668C90.2517 20.492 89.9297 19.1387 89.9297 17.608C89.9297 15.956 90.247 14.5233 90.8817 13.31C91.5164 12.0873 92.3984 11.14 93.5277 10.468C94.657 9.796 95.9637 9.46 97.4477 9.46C99.0157 9.46 100.346 9.82867 101.438 10.566C102.539 11.294 103.356 12.3253 103.888 13.66C104.42 14.9947 104.62 16.5673 104.49 18.378H101.144V17.146C101.134 15.5033 100.845 14.304 100.276 13.548C99.7064 12.792 98.8104 12.414 97.5877 12.414C96.2064 12.414 95.1797 12.8433 94.5077 13.702C93.8357 14.5513 93.4997 15.7973 93.4997 17.44C93.4997 18.9707 93.8357 20.156 94.5077 20.996C95.1797 21.836 96.1597 22.256 97.4477 22.256C98.2784 22.256 98.9924 22.074 99.5897 21.71C100.196 21.3367 100.663 20.8 100.99 20.1L104.322 21.108C103.743 22.4707 102.847 23.53 101.634 24.286C100.43 25.042 99.0997 25.42 97.6437 25.42ZM92.4357 18.378V15.83H102.838V18.378H92.4357Z" fill="white"/>

</symbol>
<symbol id="icon-logomain" viewBox="0 0 105 32">

<path d="M9.226 25.42C7.75133 25.42 6.51467 25.07 5.516 24.37C4.51733 23.67 3.766 22.718 3.262 21.514C2.758 20.3007 2.506 18.9427 2.506 17.44C2.506 15.9187 2.758 14.556 3.262 13.352C3.766 12.148 4.50333 11.2007 5.474 10.51C6.454 9.81 7.66267 9.46 9.1 9.46C10.528 9.46 11.7647 9.81 12.81 10.51C13.8647 11.2007 14.6813 12.148 15.26 13.352C15.8387 14.5467 16.128 15.9093 16.128 17.44C16.128 18.952 15.8433 20.31 15.274 21.514C14.7047 22.718 13.902 23.67 12.866 24.37C11.83 25.07 10.6167 25.42 9.226 25.42ZM1.932 31.72V9.88H4.914V20.492H5.334V31.72H1.932ZM8.708 22.396C9.58533 22.396 10.3087 22.1767 10.878 21.738C11.4473 21.2993 11.8673 20.7067 12.138 19.96C12.418 19.204 12.558 18.364 12.558 17.44C12.558 16.5253 12.418 15.6947 12.138 14.948C11.858 14.192 11.424 13.5947 10.836 13.156C10.248 12.708 9.50133 12.484 8.596 12.484C7.73733 12.484 7.03733 12.694 6.496 13.114C5.95467 13.5247 5.55333 14.1033 5.292 14.85C5.04 15.5873 4.914 16.4507 4.914 17.44C4.914 18.42 5.04 19.2833 5.292 20.03C5.55333 20.7767 5.95933 21.36 6.51 21.78C7.07 22.1907 7.80267 22.396 8.708 22.396ZM24.9679 25.42C23.4372 25.42 22.0932 25.0887 20.9359 24.426C19.7786 23.7633 18.8732 22.844 18.2199 21.668C17.5759 20.492 17.2539 19.1387 17.2539 17.608C17.2539 15.956 17.5712 14.5233 18.2059 13.31C18.8406 12.0873 19.7226 11.14 20.8519 10.468C21.9812 9.796 23.2879 9.46 24.7719 9.46C26.3399 9.46 27.6699 9.82867 28.7619 10.566C29.8632 11.294 30.6799 12.3253 31.2119 13.66C31.7439 14.9947 31.9446 16.5673 31.8139 18.378H28.4679V17.146C28.4586 15.5033 28.1692 14.304 27.5999 13.548C27.0306 12.792 26.1346 12.414 24.9119 12.414C23.5306 12.414 22.5039 12.8433 21.8319 13.702C21.1599 14.5513 20.8239 15.7973 20.8239 17.44C20.8239 18.9707 21.1599 20.156 21.8319 20.996C22.5039 21.836 23.4839 22.256 24.7719 22.256C25.6026 22.256 26.3166 22.074 26.9139 21.71C27.5206 21.3367 27.9872 20.8 28.3139 20.1L31.6459 21.108C31.0672 22.4707 30.1712 23.53 28.9579 24.286C27.7539 25.042 26.4239 25.42 24.9679 25.42ZM19.7599 18.378V15.83H30.1619V18.378H19.7599ZM42.6797 25C41.681 25.1867 40.701 25.266 39.7397 25.238C38.7877 25.2193 37.9337 25.0467 37.1777 24.72C36.4217 24.384 35.8477 23.8567 35.4557 23.138C35.1103 22.4847 34.9283 21.8173 34.9097 21.136C34.891 20.4547 34.8817 19.6847 34.8817 18.826V5.68H38.2417V18.63C38.2417 19.2367 38.2463 19.7687 38.2557 20.226C38.2743 20.6833 38.3723 21.0567 38.5497 21.346C38.8857 21.906 39.4223 22.2187 40.1597 22.284C40.897 22.3493 41.737 22.312 42.6797 22.172V25ZM32.1377 12.526V9.88H42.6797V12.526H32.1377ZM45.0909 25V4.42H48.4649V25H45.0909Z" fill="#262626"/>
<path fill-rule="evenodd" clip-rule="evenodd" d="M62.4935 10.4345C60.6541 8.26268 57.5868 7.67848 55.2821 9.66718C52.9775 11.6559 52.653 14.9809 54.4629 17.333C55.6221 18.8395 58.5909 21.6331 60.5756 23.447C61.2351 24.0498 61.5649 24.3512 61.9599 24.4721C62.2995 24.576 62.6875 24.576 63.0271 24.4721C63.4221 24.3512 63.7519 24.0498 64.4114 23.447C66.3961 21.6331 69.3649 18.8395 70.5241 17.333C72.334 14.9809 72.0491 11.635 69.7049 9.66718C67.3606 7.6994 64.3329 8.26268 62.4935 10.4345Z" fill="#F6B83D"/>
<path d="M80.048 25L74.56 9.88H77.934L81.742 20.842L85.536 9.88H88.924L83.436 25H80.048ZM96.6437 25.42C95.113 25.42 93.769 25.0887 92.6117 24.426C91.4544 23.7633 90.549 22.844 89.8957 21.668C89.2517 20.492 88.9297 19.1387 88.9297 17.608C88.9297 15.956 89.247 14.5233 89.8817 13.31C90.5164 12.0873 91.3984 11.14 92.5277 10.468C93.657 9.796 94.9637 9.46 96.4477 9.46C98.0157 9.46 99.3457 9.82867 100.438 10.566C101.539 11.294 102.356 12.3253 102.888 13.66C103.42 14.9947 103.62 16.5673 103.49 18.378H100.144V17.146C100.134 15.5033 99.845 14.304 99.2757 13.548C98.7064 12.792 97.8104 12.414 96.5877 12.414C95.2064 12.414 94.1797 12.8433 93.5077 13.702C92.8357 14.5513 92.4997 15.7973 92.4997 17.44C92.4997 18.9707 92.8357 20.156 93.5077 20.996C94.1797 21.836 95.1597 22.256 96.4477 22.256C97.2784 22.256 97.9924 22.074 98.5897 21.71C99.1964 21.3367 99.663 20.8 99.9897 20.1L103.322 21.108C102.743 22.4707 101.847 23.53 100.634 24.286C99.4297 25.042 98.0997 25.42 96.6437 25.42ZM91.4357 18.378V15.83H101.838V18.378H91.4357Z" fill="#262626"/>

</symbol>
<symbol id="icon-male" viewBox="0 0 40 40">

<rect width="40" height="40" rx="20" fill="#54ADFF" fill-opacity="0.1"/>
<path d="M20 19C17.2386 19 15 21.2386 15 24C15 26.7614 17.2386 29 20 29C22.7614 29 25 26.7614 25 24C25 21.2386 22.7614 19 20 19ZM20 19V11M16 15L20 11L24 15" stroke="#54ADFF" stroke-width="1.5" stroke-linecap="round" stroke-linejoin="round"/>

</symbol>
<symbol id="icon-multiple" viewBox="0 0 40 40">

<rect width="40" height="40" rx="20" fill="#FFF4DF"/>
<path fill-rule="evenodd" clip-rule="evenodd" d="M16.7707 15.745C16.0531 15.4647 15.2631 15.4292 14.5232 15.6439C13.7833 15.8586 13.1349 16.3115 12.6788 16.9323C12.2226 17.5531 11.9841 18.3072 12.0003 19.0774C12.0165 19.8477 12.2865 20.591 12.7683 21.1921C13.2502 21.7932 13.917 22.2185 14.6652 22.4019C15.4135 22.5853 16.2014 22.5166 16.9066 22.2064C17.6118 21.8963 18.1949 21.362 18.5655 20.6866C18.936 20.0111 19.0732 19.2323 18.9558 18.4709C18.9459 18.406 18.9488 18.3398 18.9644 18.276C18.98 18.2123 19.008 18.1522 19.0468 18.0993C19.0857 18.0463 19.1345 18.0016 19.1906 17.9675C19.2468 17.9335 19.309 17.9108 19.3739 17.9009C19.4388 17.8909 19.505 17.8938 19.5688 17.9094C19.6325 17.925 19.6926 17.953 19.7455 17.9918C19.7985 18.0307 19.8432 18.0795 19.8773 18.1357C19.9113 18.1918 19.934 18.2541 19.9439 18.3189C20.0947 19.2979 19.9181 20.2992 19.4416 21.1675C18.9651 22.0358 18.2153 22.7226 17.3086 23.1213C16.4019 23.5199 15.389 23.6081 14.427 23.3723C13.465 23.1364 12.6078 22.5896 11.9883 21.8168C11.3689 21.0439 11.0218 20.0882 11.001 19.098C10.9802 18.1077 11.2868 17.1383 11.8733 16.3401C12.4597 15.5419 13.2933 14.9596 14.2445 14.6836C15.1957 14.4075 16.2114 14.4531 17.1341 14.8134C17.1961 14.8366 17.2528 14.8719 17.301 14.9173C17.3492 14.9626 17.388 15.0171 17.4149 15.0775C17.4419 15.138 17.4566 15.2032 17.4582 15.2694C17.4598 15.3355 17.4482 15.4014 17.4242 15.463C17.4001 15.5247 17.364 15.581 17.3181 15.6286C17.2721 15.6762 17.2171 15.7142 17.1563 15.7404C17.0955 15.7665 17.0301 15.7804 16.9639 15.7811C16.8977 15.7818 16.8321 15.7699 16.7707 15.745Z" fill="#F6B83D"/>
<path fill-rule="evenodd" clip-rule="evenodd" d="M14.998 27.5002V23.5018C14.998 23.3693 15.0507 23.2421 15.1444 23.1484C15.2382 23.0547 15.3653 23.002 15.4978 23.002C15.6304 23.002 15.7575 23.0547 15.8513 23.1484C15.945 23.2421 15.9976 23.3693 15.9976 23.5018V27.5002C15.9976 27.6328 15.945 27.7599 15.8513 27.8536C15.7575 27.9473 15.6304 28 15.4978 28C15.3653 28 15.2382 27.9473 15.1444 27.8536C15.0507 27.7599 14.998 27.6328 14.998 27.5002Z" fill="#F6B83D"/>
<path fill-rule="evenodd" clip-rule="evenodd" d="M13.499 25.0012C13.499 24.8687 13.5517 24.7415 13.6454 24.6478C13.7391 24.5541 13.8663 24.5014 13.9988 24.5014H16.9976C17.1302 24.5014 17.2573 24.5541 17.351 24.6478C17.4447 24.7415 17.4974 24.8687 17.4974 25.0012C17.4974 25.1338 17.4447 25.2609 17.351 25.3546C17.2573 25.4484 17.1302 25.501 16.9976 25.501H13.9988C13.8663 25.501 13.7391 25.4484 13.6454 25.3546C13.5517 25.2609 13.499 25.1338 13.499 25.0012ZM22.4464 15.6365C21.8925 15.4802 21.3086 15.4629 20.7464 15.5861C20.1843 15.7094 19.6612 15.9695 19.2236 16.3433C18.786 16.7171 18.4473 17.1931 18.2377 17.7291C18.028 18.265 17.9538 18.8445 18.0217 19.416C18.0298 19.4813 18.0249 19.5477 18.0073 19.6111C17.9897 19.6746 17.9598 19.7339 17.9191 19.7858C17.8785 19.8376 17.8281 19.8809 17.7707 19.9132C17.7133 19.9455 17.6501 19.9661 17.5847 19.9739C17.5193 19.9816 17.453 19.9764 17.3896 19.9585C17.3263 19.9405 17.2671 19.9103 17.2154 19.8694C17.1638 19.8285 17.1208 19.7778 17.0888 19.7203C17.0568 19.6627 17.0365 19.5994 17.0291 19.5339C16.9123 18.5504 17.1235 17.5557 17.6298 16.7044C18.136 15.8531 18.9092 15.1927 19.8292 14.8257C20.7491 14.4587 21.7645 14.4056 22.7178 14.6746C23.671 14.9437 24.5088 15.5199 25.1011 16.3137C25.6935 17.1076 26.0072 18.0748 25.9936 19.0652C25.9801 20.0556 25.64 21.0138 25.0262 21.7912C24.4124 22.5686 23.5592 23.1216 22.5989 23.3645C21.6387 23.6074 20.6251 23.5265 19.7155 23.1345C19.6552 23.1085 19.6006 23.0709 19.5549 23.0239C19.5091 22.9768 19.4731 22.9212 19.4488 22.8602C19.3998 22.7371 19.4017 22.5995 19.4541 22.4777C19.5065 22.356 19.6052 22.2601 19.7283 22.211C19.8515 22.162 19.9891 22.1639 20.1108 22.2164C20.5506 22.4058 21.0245 22.503 21.5033 22.5019C21.9821 22.5008 22.4556 22.4014 22.8944 22.2099C23.3332 22.0184 23.7281 21.7389 24.0546 21.3886C24.381 21.0384 24.6321 20.6248 24.7922 20.1736C24.9524 19.7224 25.0182 19.2431 24.9857 18.7654C24.9531 18.2877 24.8229 17.8218 24.603 17.3965C24.3831 16.9712 24.0782 16.5955 23.7072 16.2928C23.3363 15.9901 22.9072 15.7667 22.4464 15.6365Z" fill="#F6B83D"/>
<path fill-rule="evenodd" clip-rule="evenodd" d="M24.3915 16.6081C24.2978 16.5144 24.2451 16.3873 24.2451 16.2548C24.2451 16.1222 24.2978 15.9951 24.3915 15.9014L28.1399 12.1529C28.186 12.1052 28.2412 12.0671 28.3022 12.0409C28.3631 12.0147 28.4287 12.0009 28.4951 12.0004C28.5614 11.9998 28.6273 12.0124 28.6887 12.0376C28.7501 12.0627 28.8059 12.0998 28.8528 12.1467C28.8998 12.1937 28.9369 12.2495 28.962 12.3109C28.9871 12.3723 28.9998 12.4381 28.9992 12.5045C28.9986 12.5708 28.9848 12.6364 28.9586 12.6974C28.9325 12.7584 28.8944 12.8135 28.8466 12.8596L25.0982 16.6081C25.0044 16.7018 24.8773 16.7544 24.7448 16.7544C24.6123 16.7544 24.4852 16.7018 24.3915 16.6081Z" fill="#F6B83D"/>
<path fill-rule="evenodd" clip-rule="evenodd" d="M28.455 15.5051C28.3893 15.5042 28.3245 15.4905 28.2642 15.4646C28.2039 15.4387 28.1493 15.4011 28.1035 15.3541C28.0577 15.3071 28.0216 15.2515 27.9972 15.1905C27.9729 15.1296 27.9608 15.0644 27.9617 14.9988L27.9867 13.0126L26.0005 13.0376C25.8679 13.0393 25.7401 12.9883 25.6452 12.8958C25.5502 12.8033 25.4959 12.6768 25.4942 12.5443C25.4925 12.4117 25.5435 12.2839 25.636 12.189C25.7285 12.094 25.8549 12.0397 25.9875 12.038L28.9993 12L28.9613 15.0118C28.9604 15.0774 28.9467 15.1422 28.9208 15.2026C28.8949 15.2629 28.8573 15.3175 28.8103 15.3633C28.7633 15.4091 28.7077 15.4452 28.6467 15.4695C28.5858 15.4939 28.5206 15.5059 28.455 15.5051Z" fill="#F6B83D"/>

</symbol>
<symbol id="icon-rectangle-4566" viewBox="0 0 132 52">

<rect width="132" height="52" fill="#F6B83D"/>

</symbol>
<symbol id="icon-search" viewBox="0 0 18 18">

<path d="M8.25 14.25C11.5637 14.25 14.25 11.5637 14.25 8.25C14.25 4.93629 11.5637 2.25 8.25 2.25C4.93629 2.25 2.25 4.93629 2.25 8.25C2.25 11.5637 4.93629 14.25 8.25 14.25Z" stroke="#262626" stroke-width="2" stroke-linecap="round" stroke-linejoin="round"/>
<path d="M15.7508 15.75L12.4883 12.4875" stroke="#262626" stroke-width="2" stroke-linecap="round" stroke-linejoin="round"/>

</symbol>
<symbol id="icon-star" viewBox="0 0 16 16">

<g clip-path="url(#clip0_55857_2203)">
<path d="M9.7998 4.69727C9.95896 4.99878 10.249 5.20939 10.585 5.26758L14.3848 5.92383L11.6973 8.69141C11.4597 8.93598 11.3489 9.27679 11.3975 9.61426L11.9463 13.4316L8.48535 11.7305L8.36816 11.6807C8.13008 11.5961 7.86992 11.5961 7.63184 11.6807L7.51465 11.7305L4.05273 13.4316L4.60254 9.61426C4.65107 9.27679 4.54025 8.93598 4.30273 8.69141L1.61426 5.92383L5.41504 5.26758C5.75098 5.20939 6.04104 4.99878 6.2002 4.69727L8 1.28613L9.7998 4.69727Z" fill="#FFC531" stroke="#FFC531" stroke-width="1.2"/>
</g>
<defs>
<clipPath id="clip0_55857_2203">
<rect width="16" height="16" fill="white"/>
</clipPath>
</defs>

</symbol>
</svg>